<svg width="20" height="30" viewBox="0 0 20 30" fill="none" xmlns="http://www.w3.org/2000/svg">
<g clip-path="url(#clip0)">
<path fill-rule="evenodd" clip-rule="evenodd" d="M11.0843 24.0369V27.0242H13.7469V29.1873H11.0843H8.92256H6.26135V27.0242H8.92256V24.0546C4.20335 23.6111 -0.203337 19.944 0.00683023 13.1423L0.151491 8.48039L2.33505 8.4722L2.22041 13.826C1.97885 24.9812 17.5394 25.317 17.7059 14.1781L17.7905 8.48312H20L19.8936 13.594C19.7584 20.0682 15.5783 23.5224 11.0843 24.0369Z" fill="#231F20"/>
<path fill-rule="evenodd" clip-rule="evenodd" d="M14.4374 5.94609V13.1341C14.4374 16.404 12.4586 19.0802 10.0389 19.0802C7.62061 19.0802 5.63904 16.404 5.63904 13.1341V5.94609C5.6404 2.67622 7.62061 0 10.0389 0C12.4586 0 14.4374 2.67622 14.4374 5.94609Z" fill="#231F20"/>
</g>
<defs>
<clipPath id="clip0">
<rect width="20" height="29.1887" fill="white"/>
</clipPath>
</defs>
</svg>
